<svg id="visual" viewBox="0 0 960 540" width="960" height="540" xmlns="http://www.w3.org/2000/svg" xmlns:xlink="http://www.w3.org/1999/xlink" version="1.1"><rect x="0" y="0" width="960" height="540" fill="#F5BF00"></rect><path d="M0 437L40 419C80 401 160 365 240 347.3C320 329.7 400 330.3 480 354.2C560 378 640 425 720 429.8C800 434.7 880 397.3 920 378.7L960 360L960 541L920 541C880 541 800 541 720 541C640 541 560 541 480 541C400 541 320 541 240 541C160 541 80 541 40 541L0 541Z" fill="#FFF3C9" stroke-linecap="round" stroke-linejoin="miter"></path></svg>